<svg t="1668928202420" class="icon" viewBox="0 0 1024 1024" version="1.1" xmlns="http://www.w3.org/2000/svg" p-id="1268" width="200" height="200">
    <path d="M821.638095 436.419048l-23.161905-3.657143c-29.257143-6.095238-54.857143-24.380952-70.704761-51.2-15.847619-25.6-20.72381-57.295238-12.190477-86.552381l7.314286-21.942857c-48.761905-53.638095-120.685714-67.047619-120.685714-67.047619l-14.628572 17.066666c-19.504762 23.161905-48.761905 35.352381-79.238095 35.352381h-2.438095c-30.47619 1.219048-59.733333-10.971429-79.238095-32.914285l-14.628572-15.84762c-71.92381 15.847619-118.247619 71.92381-118.247619 71.92381l7.314286 20.72381c9.752381 28.038095 6.095238 59.733333-8.533333 85.333333 0 1.219048-1.219048 1.219048-1.219048 2.438095-14.628571 26.819048-39.009524 46.32381-68.266667 53.638095l-21.942857 4.876191c-21.942857 69.485714 2.438095 137.752381 2.438095 137.752381l23.161905 3.657143c29.257143 6.095238 54.857143 24.380952 70.704762 51.2 15.847619 25.6 20.72381 57.295238 12.190476 86.552381l-7.314285 21.942857c48.761905 53.638095 120.685714 67.047619 120.685714 67.047619l14.628571-17.066667c19.504762-23.161905 48.761905-35.352381 79.238095-35.352381h2.438096c30.47619-1.219048 59.733333 10.971429 79.238095 32.914286l14.628571 15.847619c71.92381-15.847619 118.247619-71.92381 118.247619-71.92381l-7.314285-20.723809c-9.752381-28.038095-6.095238-59.733333 8.533333-85.333333 0-1.219048 1.219048-1.219048 1.219048-2.438096 14.628571-26.819048 39.009524-46.32381 68.266666-53.638095l21.942857-4.87619c23.161905-68.266667-2.438095-137.752381-2.438095-137.752381zM512 616.838095c-57.295238 0-103.619048-46.32381-103.619048-104.838095 0-57.295238 46.32381-104.838095 103.619048-104.838095s103.619048 46.32381 103.619048 104.838095c0 57.295238-46.32381 104.838095-103.619048 104.838095z" p-id="1269"></path>
</svg>